<?xml version="1.0" standalone="no"?>
<!DOCTYPE svg PUBLIC "-//W3C//DTD SVG 20010904//EN"
 "http://www.w3.org/TR/2001/REC-SVG-20010904/DTD/svg10.dtd">
<svg version="1.0" xmlns="http://www.w3.org/2000/svg"
 width="2000.000000pt" height="1166.000000pt" viewBox="0 0 2000.000000 1166.000000"
 preserveAspectRatio="xMidYMid meet">

<g transform="translate(0.000000,1166.000000) scale(0.100000,-0.100000)"
fill="#000000" stroke="none">
<path d="M4835 9144 c-390 -87 -665 -426 -665 -821 0 -182 45 -334 142 -480
38 -56 540 -566 2126 -2161 1142 -1148 2272 -2284 2512 -2526 239 -241 460
-457 491 -481 77 -60 169 -108 269 -141 82 -27 92 -28 290 -28 198 0 208 1
290 28 100 33 192 81 269 141 31 24 256 245 502 492 245 246 1304 1312 2355
2368 2274 2287 2231 2243 2282 2323 252 392 135 923 -259 1175 -62 39 -145 76
-234 103 -87 27 -334 27 -425 0 -95 -28 -217 -87 -285 -139 -33 -25 -350 -337
-705 -694 -3205 -3222 -3784 -3803 -3790 -3803 -4 0 -1003 1002 -2221 2226
-1217 1224 -2240 2246 -2274 2271 -71 54 -174 105 -270 134 -95 28 -301 35
-400 13z"/>
</g>
</svg>
